<?xml version="1.0" encoding="utf-8"?>
<!-- Generator: Adobe Illustrator 24.1.2, SVG Export Plug-In . SVG Version: 6.00 Build 0)  -->
<svg version="1.1" id="Layer_1" xmlns="http://www.w3.org/2000/svg" xmlns:xlink="http://www.w3.org/1999/xlink" x="0px" y="0px"
	 viewBox="0 0 204.4 250.8" style="enable-background:new 0 0 204.4 250.8;" xml:space="preserve">
<style type="text/css">
	.st0{display:none;}
	.st1{display:inline;}
	.st2{fill:none;stroke:#3E9299;stroke-width:3;stroke-miterlimit:10;}
	.st3{display:inline;fill:none;stroke:#3E9299;stroke-width:3;stroke-linejoin:round;stroke-miterlimit:10;}
	.st4{fill:none;stroke:#3E9299;stroke-width:3;stroke-linejoin:round;stroke-miterlimit:10;}
	.st5{fill:none;stroke:#3E9299;stroke-width:3;stroke-linecap:round;stroke-linejoin:round;stroke-miterlimit:10;}
</style>
<g class="st0">
	<g class="st1">
		<line class="st2" x1="102.2" y1="4" x2="102.2" y2="101.9"/>
		<line class="st2" x1="17.4" y1="150.9" x2="102.2" y2="101.9"/>
		<line class="st2" x1="187" y1="150.9" x2="102.2" y2="101.9"/>
	</g>
	<polygon class="st3" points="102.2,118.4 83.9,245.3 120.5,245.3 	"/>
</g>
<g>
	<rect x="13.6" y="84.1" class="st4" width="177.1" height="59.8"/>
	<line class="st4" x1="129.2" y1="144" x2="129.2" y2="222.1"/>
	<line class="st4" x1="75.3" y1="222.1" x2="75.3" y2="144"/>
	<line class="st4" x1="13.7" y1="144" x2="75.3" y2="183"/>
	<line class="st4" x1="129.2" y1="183" x2="190.8" y2="144"/>
	<polygon class="st4" points="50.2,1.5 25.7,84.1 74.7,84.1 	"/>
	<line class="st4" x1="35.2" y1="1.5" x2="65.2" y2="1.5"/>
	<g>
		<g>
			<polyline class="st5" points="102.2,237.3 122.3,249.3 142.5,237.3 162.6,249.3 182.7,237.3 202.9,249.3 			"/>
		</g>
		<polyline class="st5" points="102.2,237.8 82,248.8 61.9,237.8 41.8,248.8 21.6,237.8 1.5,248.8 		"/>
	</g>
</g>
</svg>
