<?xml version="1.0" encoding="utf-8"?>
<!-- Generator: Adobe Illustrator 24.1.2, SVG Export Plug-In . SVG Version: 6.00 Build 0)  -->
<svg version="1.1" baseProfile="tiny" id="Layer_1" xmlns="http://www.w3.org/2000/svg" xmlns:xlink="http://www.w3.org/1999/xlink"
	 x="0px" y="0px" viewBox="0 0 204.4 250.8" overflow="visible" xml:space="preserve">
<g display="none">
	<g display="inline">
		<line fill="none" stroke="#3E9299" stroke-width="3" stroke-miterlimit="10" x1="102.2" y1="4" x2="102.2" y2="101.9"/>
		<line fill="none" stroke="#3E9299" stroke-width="3" stroke-miterlimit="10" x1="17.4" y1="150.9" x2="102.2" y2="101.9"/>
		<line fill="none" stroke="#3E9299" stroke-width="3" stroke-miterlimit="10" x1="187" y1="150.9" x2="102.2" y2="101.9"/>
	</g>
	<polygon display="inline" fill="none" stroke="#3E9299" stroke-width="3" stroke-linejoin="round" stroke-miterlimit="10" points="
		102.2,118.4 83.9,245.3 120.5,245.3 	"/>
</g>
<g>
	
		<rect x="13.6" y="84.1" fill="none" stroke="#000000" stroke-width="3" stroke-linejoin="round" stroke-miterlimit="10" width="177.1" height="59.8"/>
	
		<line fill="none" stroke="#000000" stroke-width="3" stroke-linejoin="round" stroke-miterlimit="10" x1="129.2" y1="144" x2="129.2" y2="222.1"/>
	
		<line fill="none" stroke="#000000" stroke-width="3" stroke-linejoin="round" stroke-miterlimit="10" x1="75.3" y1="222.1" x2="75.3" y2="144"/>
	
		<line fill="none" stroke="#000000" stroke-width="3" stroke-linejoin="round" stroke-miterlimit="10" x1="13.7" y1="144" x2="75.3" y2="183"/>
	
		<line fill="none" stroke="#000000" stroke-width="3" stroke-linejoin="round" stroke-miterlimit="10" x1="129.2" y1="183" x2="190.8" y2="144"/>
	<polygon fill="none" stroke="#000000" stroke-width="3" stroke-linejoin="round" stroke-miterlimit="10" points="50.2,1.5 
		25.7,84.1 74.7,84.1 	"/>
	
		<line fill="none" stroke="#000000" stroke-width="3" stroke-linejoin="round" stroke-miterlimit="10" x1="35.2" y1="1.5" x2="65.2" y2="1.5"/>
	<g>
		<g>
			
				<polyline fill="none" stroke="#000000" stroke-width="3" stroke-linecap="round" stroke-linejoin="round" stroke-miterlimit="10" points="
				102.2,237.3 122.3,249.3 142.5,237.3 162.6,249.3 182.7,237.3 202.9,249.3 			"/>
		</g>
		
			<polyline fill="none" stroke="#000000" stroke-width="3" stroke-linecap="round" stroke-linejoin="round" stroke-miterlimit="10" points="
			102.2,237.8 82,248.8 61.9,237.8 41.8,248.8 21.6,237.8 1.5,248.8 		"/>
	</g>
</g>
</svg>
