<?xml version="1.0" encoding="utf-8"?>
<!-- Generator: Adobe Illustrator 24.1.2, SVG Export Plug-In . SVG Version: 6.00 Build 0)  -->
<svg version="1.1" baseProfile="tiny" id="Layer_1" xmlns="http://www.w3.org/2000/svg" xmlns:xlink="http://www.w3.org/1999/xlink"
	 x="0px" y="0px" viewBox="0 0 432.1 141.8" overflow="visible" xml:space="preserve">
<g>
	<g>
		
			<polygon fill="none" stroke="#000000" stroke-width="3" stroke-linecap="round" stroke-linejoin="round" stroke-miterlimit="10" points="
			129.3,95.7 15.3,116.1 15.3,20 129.3,40.4 		"/>
		
			<polygon fill="none" stroke="#000000" stroke-width="3" stroke-linecap="round" stroke-linejoin="round" stroke-miterlimit="10" points="
			163,101.7 235.6,116.1 235.6,20 163,34.4 		"/>
		
			<rect x="129.3" y="10.7" fill="none" stroke="#000000" stroke-width="3" stroke-linecap="round" stroke-linejoin="round" stroke-miterlimit="10" width="33.6" height="114.8"/>
		
			<polyline fill="none" stroke="#000000" stroke-width="3" stroke-linecap="round" stroke-linejoin="round" stroke-miterlimit="10" points="
			216.8,23.8 216.8,6.7 230.7,6.7 230.7,20 		"/>
		
			<rect x="212" y="1.5" fill="none" stroke="#000000" stroke-width="3" stroke-linecap="round" stroke-linejoin="round" stroke-miterlimit="10" width="23.6" height="5.2"/>
		
			<polyline fill="none" stroke="#000000" stroke-width="3" stroke-linecap="round" stroke-linejoin="round" stroke-miterlimit="10" points="
			34.4,112.7 34.4,128.8 20.5,128.8 20.5,115.6 		"/>
		
			<rect x="15.4" y="128.8" fill="none" stroke="#000000" stroke-width="3" stroke-linecap="round" stroke-linejoin="round" stroke-miterlimit="10" width="23.6" height="5.2"/>
		
			<polyline fill="none" stroke="#000000" stroke-width="3" stroke-linecap="round" stroke-linejoin="round" stroke-miterlimit="10" points="
			15.2,77.7 1.5,77.7 1.5,58.4 15.2,58.4 		"/>
		
			<line fill="none" stroke="#000000" stroke-width="3" stroke-linecap="round" stroke-linejoin="round" stroke-miterlimit="10" x1="250" y1="77.7" x2="235.6" y2="77.7"/>
		
			<line fill="none" stroke="#000000" stroke-width="3" stroke-linecap="round" stroke-linejoin="round" stroke-miterlimit="10" x1="235.6" y1="58.4" x2="252.8" y2="58.4"/>
	</g>
	<g>
		<path fill="none" stroke="#000000" stroke-width="3" stroke-linecap="round" stroke-linejoin="round" stroke-miterlimit="10" d="
			M262.4,41.8c0,5.3-6,5.3-6,10.7c0,5.3,6,5.3,6,10.7c0,5.3-6,5.3-6,10.7c0,5.3,6,5.3,6,10.7c0,5.3-6,5.3-6,10.7"/>
	</g>
	<g>
		
			<rect x="287.7" y="14.3" fill="none" stroke="#000000" stroke-width="3" stroke-linejoin="round" stroke-miterlimit="10" width="142.9" height="103.5"/>
		
			<rect x="302.1" y="117.9" fill="none" stroke="#000000" stroke-width="3" stroke-linejoin="round" stroke-miterlimit="10" width="22.5" height="22.4"/>
		
			<rect x="395.6" y="117.9" fill="none" stroke="#000000" stroke-width="3" stroke-linejoin="round" stroke-miterlimit="10" width="22.5" height="22.4"/>
		<polygon points="364.1,64.2 378.2,37.4 359.2,37.4 343.5,70.1 353.8,70.1 340,94.8 374.2,64.2 		" fill="#000000"/>
		<path fill="none" stroke="#000000" stroke-width="3" stroke-linecap="round" stroke-linejoin="round" stroke-miterlimit="10" d="
			M287.4,92.4h-4.6c-2.8,0-5-4.3-5-9.7V53.5c0-5.3,2.3-9.7,5-9.7h4.6"/>
		
			<line fill="none" stroke="#000000" stroke-width="3" stroke-linecap="round" stroke-linejoin="round" stroke-miterlimit="10" x1="266" y1="77.7" x2="277.8" y2="77.7"/>
		
			<line fill="none" stroke="#000000" stroke-width="3" stroke-linecap="round" stroke-linejoin="round" stroke-miterlimit="10" x1="277.8" y1="58.5" x2="269.1" y2="58.5"/>
	</g>
</g>
</svg>
