<?xml version="1.0" encoding="utf-8"?>
<!-- Generator: Adobe Illustrator 24.1.2, SVG Export Plug-In . SVG Version: 6.00 Build 0)  -->
<svg version="1.1" id="Layer_1" xmlns="http://www.w3.org/2000/svg" xmlns:xlink="http://www.w3.org/1999/xlink" x="0px" y="0px"
	 viewBox="0 0 112 102.5" style="enable-background:new 0 0 112 102.5;" xml:space="preserve">
<style type="text/css">
	.st0{fill:#3E9299;stroke:#3E9299;stroke-width:8;stroke-miterlimit:10;}
	.st1{fill:#3E9299;stroke:#3E9299;stroke-linecap:round;stroke-linejoin:round;stroke-miterlimit:10;}
</style>
<g>
	<g>
		<g>
			<path class="st0" d="M28.4,35H40c1.9-8.1,4.1-14.2,6.6-18.2c2.5-4,5.7-7.1,9.7-9.4C60.3,5.1,64,4,67.5,4c2,0,3.5,0.4,4.5,1.2
				C73,6,73.5,6.9,73.5,8c0,1-0.3,1.8-1,2.4c-0.7,0.7-1.6,1-2.7,1c-1.1,0-3.3-0.3-6.5-1c-1.6-0.3-2.8-0.5-3.7-0.5
				c-2.2,0-4.1,1.3-5.8,4c-1.7,2.7-3.1,6.2-4.2,10.8L47.3,35h12.9l-0.8,3.5H46.3l-7.6,31.2c-2.4,9.5-6.2,16.7-11.4,21.5
				s-10.9,7.3-17,7.3c-2.1,0-3.6-0.4-4.7-1.2c-1.1-0.8-1.6-1.8-1.6-3c0-1,0.4-1.8,1.1-2.4C5.8,91.3,6.9,91,8.2,91
				c0.7,0,1.7,0.1,3,0.2c2.3,0.3,4.5,0.4,6.5,0.4c3.2,0,5.6-0.8,7-2.3s2.9-5.2,4.4-11.1l9.9-39.8H27.5L28.4,35z"/>
		</g>
	</g>
	<g>
		<g>
			<path class="st1" d="M69.4,53c-4.4,5.9-7.6,13.7-7.6,24.5c0,10.7,3.3,18.4,7.6,24.4h-4.1c-3.8-5-7.9-12.7-7.9-24.4
				C57.4,65.7,61.5,58,65.2,53H69.4z"/>
			<path class="st1" d="M77.4,65.6l4.1,6.2c1.1,1.6,2,3.1,2.9,4.7h0.2c1-1.7,1.9-3.2,2.9-4.8l4.1-6.2h5.7l-9.9,14l10.2,15h-6
				l-4.3-6.5c-1.1-1.7-2.1-3.3-3.1-5h-0.1c-1,1.7-2,3.3-3.1,5l-4.2,6.5h-5.8l10.3-14.8l-9.8-14.2H77.4z"/>
			<path class="st1" d="M99.6,101.9c4.3-5.9,7.6-13.7,7.6-24.5c0-10.7-3.2-18.4-7.6-24.4h4.1c3.8,4.9,7.9,12.6,7.9,24.4
				c0,11.8-4,19.4-7.9,24.5H99.6z"/>
		</g>
	</g>
</g>
</svg>
