<?xml version="1.0" encoding="utf-8"?>
<!-- Generator: Adobe Illustrator 24.1.2, SVG Export Plug-In . SVG Version: 6.00 Build 0)  -->
<svg version="1.1" id="Layer_1" xmlns="http://www.w3.org/2000/svg" xmlns:xlink="http://www.w3.org/1999/xlink" x="0px" y="0px"
	 viewBox="0 0 227 136.7" style="enable-background:new 0 0 227 136.7;" xml:space="preserve">
<style type="text/css">
	.st0{fill:none;stroke:#3E9299;stroke-width:3;stroke-linecap:round;stroke-linejoin:round;stroke-miterlimit:10;}
</style>
<g>
	<path class="st0" d="M214.9,117.3L214.9,117.3c3.6,0,6.5-2.6,6.5-5.9V84.6l4-17.3V40.4c-4-3.2-2.6-5.9-8.5-5.9h-2
		c-3.6,0-6.5,2.6-6.5,5.9v71C208.4,114.6,211.3,117.3,214.9,117.3z"/>
	<path class="st0" d="M166,5.7L166,5.7c0-2.3-1.9-4.2-4.2-4.2H77.9c-2.3,0-4.2,1.9-4.2,4.2v0c0,2.3,1.9,4.2,4.2,4.2h83.9
		C164.1,9.9,166,8,166,5.7z"/>
	<polyline class="st0" points="27.4,108.7 51.8,108.7 51.8,108.9 51.8,135.2 129.4,135.2 174.5,108.9 191.3,108.9 191.3,42.9 
		157.8,20.8 75.6,20.8 51.8,46 51.8,58.8 27.4,58.8 27,58.8 27,46 14.3,46 1.5,58.8 1.5,108.7 14.3,121.4 27,121.4 27,108.7 	"/>
	<polyline class="st0" points="126.4,20.8 126.4,9.9 113.4,9.9 113.4,20.8 	"/>
	<polyline class="st0" points="191.2,84.6 208.4,84.6 208.4,67.2 191.2,67.2 	"/>
</g>
</svg>
