<?xml version="1.0" encoding="utf-8"?>
<!-- Generator: Adobe Illustrator 24.1.2, SVG Export Plug-In . SVG Version: 6.00 Build 0)  -->
<svg version="1.1" id="Layer_1" xmlns="http://www.w3.org/2000/svg" xmlns:xlink="http://www.w3.org/1999/xlink" x="0px" y="0px"
	 viewBox="0 0 209.7 97.2" style="enable-background:new 0 0 209.7 97.2;" xml:space="preserve">
<style type="text/css">
	.st0{fill:none;stroke:#3E9299;stroke-width:3;stroke-miterlimit:10;}
	.st1{fill:#3E9299;}
	.st2{fill:none;stroke:#3E9299;stroke-width:3;stroke-linecap:round;stroke-miterlimit:10;}
</style>
<g>
	<path class="st0" d="M83,88.7H68.3c-3.6,0-6.5-2.9-6.5-6.5V15c0-3.6,2.9-6.5,6.5-6.5h15.1"/>
	<circle class="st1" cx="93.8" cy="16.2" r="3.3"/>
	<circle class="st1" cx="93.8" cy="49.1" r="3.3"/>
	<circle class="st1" cx="93.8" cy="32.6" r="3.3"/>
	<circle class="st1" cx="93.8" cy="65.6" r="3.3"/>
	<circle class="st1" cx="93.8" cy="82.1" r="3.3"/>
	<path class="st2" d="M6,77.7c0-7.3-4.5-7.3-4.5-14.6c0-7.3,4.5-7.3,4.5-14.6c0-7.3-4.5-7.3-4.5-14.6c0-7.3,4.5-7.3,4.5-14.6l0,0
		h55.8v58.2H6"/>
	<path class="st0" d="M102.2,95.7V1.5H89c-3.1,0-5.7,2.2-5.7,4.8v84.5c0,2.7,2.5,4.8,5.7,4.8H102.2z"/>
	<path class="st0" d="M126.7,88.7h14.7c3.6,0,6.5-2.9,6.5-6.5V15c0-3.6-2.9-6.5-6.5-6.5h-15.1"/>
	<circle class="st1" cx="115.9" cy="16.2" r="3.3"/>
	<circle class="st1" cx="115.9" cy="49.1" r="3.3"/>
	<circle class="st1" cx="115.9" cy="32.6" r="3.3"/>
	<circle class="st1" cx="115.9" cy="65.6" r="3.3"/>
	<circle class="st1" cx="115.9" cy="82.1" r="3.3"/>
	<path class="st2" d="M203.8,77.7c0-7.3,4.5-7.3,4.5-14.6c0-7.3-4.5-7.3-4.5-14.6c0-7.3,4.5-7.3,4.5-14.6c0-7.3-4.5-7.3-4.5-14.6
		l0,0H148v58.2H203.8"/>
	<path class="st0" d="M107.5,95.7V1.5h13.2c3.1,0,5.7,2.2,5.7,4.8v84.5c0,2.7-2.5,4.8-5.7,4.8H107.5z"/>
</g>
</svg>
