<?xml version="1.0" encoding="utf-8"?>
<!-- Generator: Adobe Illustrator 24.1.2, SVG Export Plug-In . SVG Version: 6.00 Build 0)  -->
<svg version="1.1" baseProfile="tiny" id="Layer_1" xmlns="http://www.w3.org/2000/svg" xmlns:xlink="http://www.w3.org/1999/xlink"
	 x="0px" y="0px" viewBox="0 0 209.7 97.2" overflow="visible" xml:space="preserve">
<g>
	<path fill="none" stroke="#000000" stroke-width="3" stroke-miterlimit="10" d="M83,88.7H68.3c-3.6,0-6.5-2.9-6.5-6.5V15
		c0-3.6,2.9-6.5,6.5-6.5h15.1"/>
	<circle cx="93.8" cy="16.2" r="3.3" fill="#000000"/>
	<circle cx="93.8" cy="49.1" r="3.3" fill="#000000"/>
	<circle cx="93.8" cy="32.6" r="3.3" fill="#000000"/>
	<circle cx="93.8" cy="65.6" r="3.3" fill="#000000"/>
	<circle cx="93.8" cy="82.1" r="3.3" fill="#000000"/>
	<path fill="none" stroke="#000000" stroke-width="3" stroke-linecap="round" stroke-miterlimit="10" d="M6,77.7
		c0-7.3-4.5-7.3-4.5-14.6S6,55.8,6,48.5s-4.5-7.3-4.5-14.6S6,26.6,6,19.3l0,0h55.8v58.2H6"/>
	<path fill="none" stroke="#000000" stroke-width="3" stroke-miterlimit="10" d="M102.2,95.7V1.5H89c-3.1,0-5.7,2.2-5.7,4.8v84.5
		c0,2.7,2.5,4.8,5.7,4.8L102.2,95.7L102.2,95.7z"/>
	<path fill="none" stroke="#000000" stroke-width="3" stroke-miterlimit="10" d="M126.7,88.7h14.7c3.6,0,6.5-2.9,6.5-6.5V15
		c0-3.6-2.9-6.5-6.5-6.5h-15.1"/>
	<circle cx="115.9" cy="16.2" r="3.3" fill="#000000"/>
	<circle cx="115.9" cy="49.1" r="3.3" fill="#000000"/>
	<circle cx="115.9" cy="32.6" r="3.3" fill="#000000"/>
	<circle cx="115.9" cy="65.6" r="3.3" fill="#000000"/>
	<circle cx="115.9" cy="82.1" r="3.3" fill="#000000"/>
	<path fill="none" stroke="#000000" stroke-width="3" stroke-linecap="round" stroke-miterlimit="10" d="M203.8,77.7
		c0-7.3,4.5-7.3,4.5-14.6s-4.5-7.3-4.5-14.6s4.5-7.3,4.5-14.6s-4.5-7.3-4.5-14.6l0,0H148v58.2h55.8"/>
	<path fill="none" stroke="#000000" stroke-width="3" stroke-miterlimit="10" d="M107.5,95.7V1.5h13.2c3.1,0,5.7,2.2,5.7,4.8v84.5
		c0,2.7-2.5,4.8-5.7,4.8L107.5,95.7L107.5,95.7z"/>
</g>
</svg>
