<?xml version="1.0" encoding="utf-8"?>
<!-- Generator: Adobe Illustrator 24.1.2, SVG Export Plug-In . SVG Version: 6.00 Build 0)  -->
<svg version="1.1" id="Layer_1" xmlns="http://www.w3.org/2000/svg" xmlns:xlink="http://www.w3.org/1999/xlink" x="0px" y="0px"
	 viewBox="0 0 254.3 135.6" style="enable-background:new 0 0 254.3 135.6;" xml:space="preserve">
<style type="text/css">
	.st0{fill:none;stroke:#3E9299;stroke-width:3;stroke-linecap:round;stroke-linejoin:round;stroke-miterlimit:10;}
</style>
<g>
	<polygon class="st0" points="129.3,95.7 15.3,116.1 15.3,20 129.3,40.4 	"/>
	<polygon class="st0" points="163,101.7 235.6,116.1 235.6,20 163,34.4 	"/>
	<rect x="129.3" y="10.7" class="st0" width="33.6" height="114.8"/>
	<polyline class="st0" points="216.8,23.8 216.8,6.7 230.7,6.7 230.7,20 	"/>
	
		<rect x="211.9" y="1.5" transform="matrix(-1 -1.224647e-16 1.224647e-16 -1 447.5223 8.2486)" class="st0" width="23.6" height="5.2"/>
	<polyline class="st0" points="34.4,112.7 34.4,128.8 20.5,128.8 20.5,115.6 	"/>
	<rect x="15.4" y="128.8" class="st0" width="23.6" height="5.2"/>
	<polyline class="st0" points="15.2,77.7 1.5,77.7 1.5,58.4 15.2,58.4 	"/>
	<polyline class="st0" points="235.6,58.4 252.8,58.4 252.8,77.7 235.6,77.7 	"/>
</g>
</svg>
