<?xml version="1.0" encoding="utf-8"?>
<!-- Generator: Adobe Illustrator 24.1.2, SVG Export Plug-In . SVG Version: 6.00 Build 0)  -->
<svg version="1.1" baseProfile="tiny" id="Layer_1" xmlns="http://www.w3.org/2000/svg" xmlns:xlink="http://www.w3.org/1999/xlink"
	 x="0px" y="0px" viewBox="0 0 254.3 135.6" overflow="visible" xml:space="preserve">
<g>
	
		<polygon fill="none" stroke="#000000" stroke-width="3" stroke-linecap="round" stroke-linejoin="round" stroke-miterlimit="10" points="
		129.3,95.7 15.3,116.1 15.3,20 129.3,40.4 	"/>
	
		<polygon fill="none" stroke="#000000" stroke-width="3" stroke-linecap="round" stroke-linejoin="round" stroke-miterlimit="10" points="
		163,101.7 235.6,116.1 235.6,20 163,34.4 	"/>
	
		<rect x="129.3" y="10.7" fill="none" stroke="#000000" stroke-width="3" stroke-linecap="round" stroke-linejoin="round" stroke-miterlimit="10" width="33.6" height="114.8"/>
	
		<polyline fill="none" stroke="#000000" stroke-width="3" stroke-linecap="round" stroke-linejoin="round" stroke-miterlimit="10" points="
		216.8,23.8 216.8,6.7 230.7,6.7 230.7,20 	"/>
	
		<rect x="212" y="1.5" fill="none" stroke="#000000" stroke-width="3" stroke-linecap="round" stroke-linejoin="round" stroke-miterlimit="10" width="23.6" height="5.2"/>
	
		<polyline fill="none" stroke="#000000" stroke-width="3" stroke-linecap="round" stroke-linejoin="round" stroke-miterlimit="10" points="
		34.4,112.7 34.4,128.8 20.5,128.8 20.5,115.6 	"/>
	
		<rect x="15.4" y="128.8" fill="none" stroke="#000000" stroke-width="3" stroke-linecap="round" stroke-linejoin="round" stroke-miterlimit="10" width="23.6" height="5.2"/>
	
		<polyline fill="none" stroke="#000000" stroke-width="3" stroke-linecap="round" stroke-linejoin="round" stroke-miterlimit="10" points="
		15.2,77.7 1.5,77.7 1.5,58.4 15.2,58.4 	"/>
	
		<polyline fill="none" stroke="#000000" stroke-width="3" stroke-linecap="round" stroke-linejoin="round" stroke-miterlimit="10" points="
		235.6,58.4 252.8,58.4 252.8,77.7 235.6,77.7 	"/>
</g>
</svg>
